<?xml version="1.0" encoding="utf-8"?>
<!-- Generator: Adobe Illustrator 15.0.0, SVG Export Plug-In . SVG Version: 6.00 Build 0)  -->
<!DOCTYPE svg PUBLIC "-//W3C//DTD SVG 1.1//EN" "http://www.w3.org/Graphics/SVG/1.1/DTD/svg11.dtd">
<svg version="1.1" id="圖層_1" xmlns="http://www.w3.org/2000/svg" xmlns:xlink="http://www.w3.org/1999/xlink" x="0px" y="0px"
	 width="425.2px" height="425.2px" viewBox="0 0 425.2 425.2" enable-background="new 0 0 425.2 425.2" xml:space="preserve">
<g>
	<g>
		<polygon fill="#00FFE6" points="205.645,286.424 210.564,277.903 215.482,286.424 		"/>
		<polygon fill="#012332" points="205.645,303.465 210.564,294.945 215.482,303.465 		"/>
		<polygon fill="#87BCC7" points="200.725,294.945 205.645,286.424 210.564,294.945 		"/>
		<polygon fill="#A0CFD8" points="210.564,294.945 215.482,286.424 220.402,294.945 		"/>
		<polygon fill="#00FFE6" points="195.806,303.465 200.725,294.945 205.645,303.465 		"/>
		<polygon fill="#00FFE6" points="215.482,303.465 220.402,294.945 225.322,303.465 		"/>
		<polygon fill="#BFE0E8" points="205.645,286.424 210.564,294.945 215.482,286.424 		"/>
		<polygon fill="#BFE0E8" points="200.725,294.945 205.645,303.465 210.564,294.945 		"/>
		<polygon fill="#BFE0E8" points="210.564,294.945 215.482,303.465 220.402,294.945 		"/>
		<polygon fill="#012332" points="205.645,320.508 210.564,311.987 215.482,320.508 		"/>
		<polygon fill="#87BCC7" points="200.725,311.987 205.645,303.465 210.564,311.987 		"/>
		<polygon fill="#A0CFD8" points="210.564,311.987 215.482,303.465 220.402,311.987 		"/>
		<polygon fill="#A0CFD8" points="195.806,320.508 200.725,311.987 205.645,320.508 		"/>
		<polygon fill="#A0CFD8" points="215.482,320.508 220.402,311.987 225.322,320.508 		"/>
		<polygon fill="#BFE0E8" points="205.645,303.465 210.564,311.987 215.482,303.465 		"/>
		<polygon fill="#BFE0E8" points="200.725,311.987 205.645,320.508 210.564,311.987 		"/>
		<polygon fill="#BFE0E8" points="210.564,311.987 215.482,320.508 220.402,311.987 		"/>
		<polygon fill="#87BCC7" points="200.725,329.029 205.645,320.508 210.564,329.029 		"/>
		<polygon fill="#A0CFD8" points="210.564,329.029 215.482,320.508 220.402,329.029 		"/>
		<polygon fill="#BFE0E8" points="205.645,320.508 210.564,329.029 215.482,320.508 		"/>
		<polygon fill="#FFFFFF" points="190.886,329.029 195.806,320.508 200.725,329.029 		"/>
		<polygon fill="#BFE0E8" points="195.806,320.508 200.725,329.029 205.645,320.508 		"/>
		<polygon fill="#FFFFFF" points="220.402,329.029 225.322,320.508 230.242,329.029 		"/>
		<polygon fill="#BFE0E8" points="215.482,320.508 220.402,329.029 225.322,320.508 		"/>
		<polygon fill="#012332" points="205.645,337.549 210.564,329.028 215.482,337.549 		"/>
		<polygon fill="#A0CFD8" points="195.806,337.549 200.725,329.028 205.645,337.549 		"/>
		<polygon fill="#A0CFD8" points="215.482,337.549 220.402,329.028 225.322,337.549 		"/>
		<polygon fill="#BFE0E8" points="200.725,329.028 205.645,337.549 210.564,329.028 		"/>
		<polygon fill="#BFE0E8" points="210.564,329.028 215.482,337.549 220.402,329.028 		"/>
		<polygon fill="#87BCC7" points="200.725,346.07 205.645,337.549 210.564,346.07 		"/>
		<polygon fill="#87BCC7" points="210.564,346.07 215.482,337.549 220.402,346.07 		"/>
		<polygon fill="#BFE0E8" points="205.645,337.549 210.564,346.07 215.482,337.549 		"/>
		<polygon fill="#87BCC7" points="190.886,346.07 195.806,337.549 200.725,346.07 		"/>
		<polygon fill="#BFE0E8" points="195.806,337.549 200.725,346.07 205.645,337.549 		"/>
		<polygon fill="#87BCC7" points="220.402,346.07 225.322,337.549 230.242,346.07 		"/>
		<polygon fill="#BFE0E8" points="215.482,337.549 220.402,346.07 225.322,337.549 		"/>
		<polygon fill="#87BCC7" points="205.645,354.591 210.564,346.07 215.482,354.591 		"/>
		<polygon fill="#A0CFD8" points="205.645,371.633 210.564,363.112 215.482,371.633 		"/>
		<polygon fill="#87BCC7" points="195.806,354.591 200.725,346.07 205.645,354.591 		"/>
		<polygon fill="#87BCC7" points="215.482,354.591 220.402,346.07 225.322,354.591 		"/>
		<polygon fill="#BFE0E8" points="200.725,346.07 205.645,354.591 210.564,346.07 		"/>
		<polygon fill="#BFE0E8" points="210.564,346.07 215.482,354.591 220.402,346.07 		"/>
		<polygon fill="#87BCC7" points="200.725,363.112 205.645,354.591 210.564,363.112 		"/>
		<polygon fill="#87BCC7" points="210.564,363.112 215.482,354.591 220.402,363.112 		"/>
		<polygon fill="#BFE0E8" points="205.645,354.591 210.564,363.112 215.482,354.591 		"/>
		<polygon fill="#87BCC7" points="190.886,363.112 195.806,354.591 200.725,363.112 		"/>
		<polygon fill="#BFE0E8" points="195.806,354.591 200.725,363.112 205.645,354.591 		"/>
		<polygon fill="#87BCC7" points="185.967,354.591 190.886,346.07 195.806,354.591 		"/>
		<polygon fill="#BFE0E8" points="190.886,346.07 195.806,354.591 200.725,346.07 		"/>
		<polygon fill="#FFFFFF" points="181.047,363.112 185.967,354.591 190.886,363.112 		"/>
		<polygon fill="#BFE0E8" points="185.967,354.591 190.886,363.112 195.806,354.591 		"/>
		<polygon fill="#87BCC7" points="220.402,363.112 225.322,354.591 230.242,363.112 		"/>
		<polygon fill="#BFE0E8" points="215.482,354.591 220.402,363.112 225.322,354.591 		"/>
		<polygon fill="#87BCC7" points="225.322,354.591 230.242,346.07 235.161,354.591 		"/>
		<polygon fill="#BFE0E8" points="220.402,346.07 225.322,354.591 230.242,346.07 		"/>
		<polygon fill="#FFFFFF" points="230.242,363.112 235.161,354.591 240.081,363.112 		"/>
		<polygon fill="#BFE0E8" points="225.322,354.591 230.242,363.112 235.161,354.591 		"/>
	</g>
	<g>
		<polygon fill="#00FFE6" points="163.896,301.95 167.916,294.986 171.938,301.95 		"/>
		<polygon fill="#012332" points="163.896,315.879 167.916,308.915 171.938,315.879 		"/>
		<polygon fill="#87BCC7" points="159.876,308.915 163.896,301.95 167.916,308.915 		"/>
		<polygon fill="#A0CFD8" points="167.916,308.915 171.938,301.95 175.959,308.915 		"/>
		<polygon fill="#00FFE6" points="155.855,315.879 159.876,308.915 163.896,315.879 		"/>
		<polygon fill="#00FFE6" points="171.938,315.879 175.959,308.915 179.979,315.879 		"/>
		<polygon fill="#BFE0E8" points="163.896,301.95 167.916,308.915 171.938,301.95 		"/>
		<polygon fill="#BFE0E8" points="159.876,308.915 163.896,315.879 167.916,308.915 		"/>
		<polygon fill="#BFE0E8" points="167.916,308.915 171.938,315.879 175.959,308.915 		"/>
		<polygon fill="#012332" points="163.896,329.807 167.916,322.843 171.938,329.807 		"/>
		<polygon fill="#87BCC7" points="159.876,322.843 163.896,315.879 167.916,322.843 		"/>
		<polygon fill="#A0CFD8" points="167.916,322.843 171.938,315.879 175.959,322.843 		"/>
		<polygon fill="#A0CFD8" points="155.855,329.807 159.876,322.843 163.896,329.807 		"/>
		<polygon fill="#A0CFD8" points="171.938,329.807 175.959,322.843 179.979,329.807 		"/>
		<polygon fill="#BFE0E8" points="163.896,315.879 167.916,322.843 171.938,315.879 		"/>
		<polygon fill="#BFE0E8" points="159.876,322.843 163.896,329.807 167.916,322.843 		"/>
		<polygon fill="#BFE0E8" points="167.916,322.843 171.938,329.807 175.959,322.843 		"/>
		<polygon fill="#87BCC7" points="159.876,336.771 163.896,329.807 167.916,336.771 		"/>
		<polygon fill="#A0CFD8" points="167.916,336.771 171.938,329.807 175.959,336.771 		"/>
		<polygon fill="#BFE0E8" points="163.896,329.807 167.916,336.771 171.938,329.807 		"/>
		<polygon fill="#FFFFFF" points="151.834,336.771 155.855,329.807 159.876,336.771 		"/>
		<polygon fill="#BFE0E8" points="155.855,329.807 159.876,336.771 163.896,329.807 		"/>
		<polygon fill="#FFFFFF" points="175.959,336.771 179.979,329.807 184,336.771 		"/>
		<polygon fill="#BFE0E8" points="171.938,329.807 175.959,336.771 179.979,329.807 		"/>
		<polygon fill="#012332" points="163.896,343.734 167.916,336.771 171.938,343.734 		"/>
		<polygon fill="#A0CFD8" points="155.855,343.734 159.876,336.771 163.896,343.734 		"/>
		<polygon fill="#A0CFD8" points="171.938,343.734 175.959,336.771 179.979,343.734 		"/>
		<polygon fill="#BFE0E8" points="159.876,336.771 163.896,343.734 167.916,336.771 		"/>
		<polygon fill="#BFE0E8" points="167.916,336.771 171.938,343.734 175.959,336.771 		"/>
		<polygon fill="#87BCC7" points="159.876,350.699 163.896,343.734 167.916,350.699 		"/>
		<polygon fill="#87BCC7" points="167.916,350.699 171.938,343.734 175.959,350.699 		"/>
		<polygon fill="#BFE0E8" points="163.896,343.734 167.916,350.699 171.938,343.734 		"/>
		<polygon fill="#87BCC7" points="151.834,350.699 155.855,343.734 159.876,350.699 		"/>
		<polygon fill="#BFE0E8" points="155.855,343.734 159.876,350.699 163.896,343.734 		"/>
		<polygon fill="#87BCC7" points="175.959,350.699 179.979,343.734 184,350.699 		"/>
		<polygon fill="#BFE0E8" points="171.938,343.734 175.959,350.699 179.979,343.734 		"/>
		<polygon fill="#87BCC7" points="163.896,357.664 167.916,350.699 171.938,357.664 		"/>
		<polygon fill="#A0CFD8" points="163.896,371.591 167.916,364.627 171.938,371.591 		"/>
		<polygon fill="#87BCC7" points="155.855,357.664 159.876,350.699 163.896,357.664 		"/>
		<polygon fill="#87BCC7" points="171.938,357.664 175.959,350.699 179.979,357.664 		"/>
		<polygon fill="#BFE0E8" points="159.876,350.699 163.896,357.664 167.916,350.699 		"/>
		<polygon fill="#BFE0E8" points="167.916,350.699 171.938,357.664 175.959,350.699 		"/>
		<polygon fill="#87BCC7" points="159.876,364.627 163.896,357.664 167.916,364.627 		"/>
		<polygon fill="#87BCC7" points="167.916,364.627 171.938,357.664 175.959,364.627 		"/>
		<polygon fill="#BFE0E8" points="163.896,357.664 167.916,364.627 171.938,357.664 		"/>
		<polygon fill="#87BCC7" points="151.834,364.627 155.855,357.664 159.876,364.627 		"/>
		<polygon fill="#BFE0E8" points="155.855,357.664 159.876,364.627 163.896,357.664 		"/>
		<polygon fill="#87BCC7" points="147.814,357.664 151.834,350.699 155.855,357.664 		"/>
		<polygon fill="#BFE0E8" points="151.834,350.699 155.855,357.664 159.876,350.699 		"/>
		<polygon fill="#FFFFFF" points="143.793,364.627 147.814,357.664 151.834,364.627 		"/>
		<polygon fill="#BFE0E8" points="147.814,357.664 151.834,364.627 155.855,357.664 		"/>
		<polygon fill="#87BCC7" points="175.959,364.627 179.979,357.664 184,364.627 		"/>
		<polygon fill="#BFE0E8" points="171.938,357.664 175.959,364.627 179.979,357.664 		"/>
		<polygon fill="#87BCC7" points="179.979,357.664 184,350.699 188.021,357.664 		"/>
		<polygon fill="#BFE0E8" points="175.959,350.699 179.979,357.664 184,350.699 		"/>
		<polygon fill="#FFFFFF" points="184,364.627 188.021,357.664 192.042,364.627 		"/>
		<polygon fill="#BFE0E8" points="179.979,357.664 184,364.627 188.021,357.664 		"/>
	</g>
	<g>
		<polygon fill="#00FFE6" points="244.179,323.311 246.966,318.484 249.753,323.311 		"/>
		<polygon fill="#012332" points="244.179,332.968 246.966,328.14 249.753,332.968 		"/>
		<polygon fill="#87BCC7" points="241.391,328.14 244.179,323.311 246.966,328.14 		"/>
		<polygon fill="#A0CFD8" points="246.966,328.14 249.753,323.311 252.541,328.14 		"/>
		<polygon fill="#00FFE6" points="238.604,332.968 241.391,328.14 244.179,332.968 		"/>
		<polygon fill="#00FFE6" points="249.753,332.968 252.541,328.14 255.329,332.968 		"/>
		<polygon fill="#BFE0E8" points="244.179,323.311 246.966,328.14 249.753,323.311 		"/>
		<polygon fill="#BFE0E8" points="241.391,328.14 244.179,332.968 246.966,328.14 		"/>
		<polygon fill="#BFE0E8" points="246.966,328.14 249.753,332.968 252.541,328.14 		"/>
		<polygon fill="#012332" points="244.179,342.623 246.966,337.796 249.753,342.623 		"/>
		<polygon fill="#87BCC7" points="241.391,337.796 244.179,332.968 246.966,337.796 		"/>
		<polygon fill="#A0CFD8" points="246.966,337.796 249.753,332.968 252.541,337.796 		"/>
		<polygon fill="#A0CFD8" points="238.604,342.623 241.391,337.796 244.179,342.623 		"/>
		<polygon fill="#A0CFD8" points="249.753,342.623 252.541,337.796 255.329,342.623 		"/>
		<polygon fill="#BFE0E8" points="244.179,332.968 246.966,337.796 249.753,332.968 		"/>
		<polygon fill="#BFE0E8" points="241.391,337.796 244.179,342.623 246.966,337.796 		"/>
		<polygon fill="#BFE0E8" points="246.966,337.796 249.753,342.623 252.541,337.796 		"/>
		<polygon fill="#87BCC7" points="241.391,347.452 244.179,342.623 246.966,347.452 		"/>
		<polygon fill="#A0CFD8" points="246.966,347.452 249.753,342.623 252.541,347.452 		"/>
		<polygon fill="#BFE0E8" points="244.179,342.623 246.966,347.452 249.753,342.623 		"/>
		<polygon fill="#FFFFFF" points="235.816,347.452 238.604,342.623 241.391,347.452 		"/>
		<polygon fill="#BFE0E8" points="238.604,342.623 241.391,347.452 244.179,342.623 		"/>
		<polygon fill="#FFFFFF" points="252.541,347.452 255.329,342.623 258.115,347.452 		"/>
		<polygon fill="#BFE0E8" points="249.753,342.623 252.541,347.452 255.329,342.623 		"/>
		<polygon fill="#012332" points="244.179,352.28 246.966,347.452 249.753,352.28 		"/>
		<polygon fill="#A0CFD8" points="238.604,352.28 241.391,347.452 244.179,352.28 		"/>
		<polygon fill="#A0CFD8" points="249.753,352.28 252.541,347.452 255.329,352.28 		"/>
		<polygon fill="#BFE0E8" points="241.391,347.452 244.179,352.28 246.966,347.452 		"/>
		<polygon fill="#BFE0E8" points="246.966,347.452 249.753,352.28 252.541,347.452 		"/>
		<polygon fill="#87BCC7" points="241.391,357.107 244.179,352.28 246.966,357.107 		"/>
		<polygon fill="#87BCC7" points="246.966,357.107 249.753,352.28 252.541,357.107 		"/>
		<polygon fill="#BFE0E8" points="244.179,352.28 246.966,357.107 249.753,352.28 		"/>
		<polygon fill="#87BCC7" points="235.816,357.107 238.604,352.28 241.391,357.107 		"/>
		<polygon fill="#BFE0E8" points="238.604,352.28 241.391,357.107 244.179,352.28 		"/>
		<polygon fill="#87BCC7" points="252.541,357.107 255.329,352.28 258.115,357.107 		"/>
		<polygon fill="#BFE0E8" points="249.753,352.28 252.541,357.107 255.329,352.28 		"/>
		<polygon fill="#87BCC7" points="244.179,361.936 246.966,357.107 249.753,361.936 		"/>
		<polygon fill="#A0CFD8" points="244.179,371.591 246.966,366.764 249.753,371.591 		"/>
		<polygon fill="#87BCC7" points="238.604,361.936 241.391,357.107 244.179,361.936 		"/>
		<polygon fill="#87BCC7" points="249.753,361.936 252.541,357.107 255.329,361.936 		"/>
		<polygon fill="#BFE0E8" points="241.391,357.107 244.179,361.936 246.966,357.107 		"/>
		<polygon fill="#BFE0E8" points="246.966,357.107 249.753,361.936 252.541,357.107 		"/>
		<polygon fill="#87BCC7" points="241.391,366.764 244.179,361.936 246.966,366.764 		"/>
		<polygon fill="#87BCC7" points="246.966,366.764 249.753,361.936 252.541,366.764 		"/>
		<polygon fill="#BFE0E8" points="244.179,361.936 246.966,366.764 249.753,361.936 		"/>
		<polygon fill="#87BCC7" points="235.816,366.764 238.604,361.936 241.391,366.764 		"/>
		<polygon fill="#BFE0E8" points="238.604,361.936 241.391,366.764 244.179,361.936 		"/>
		<polygon fill="#87BCC7" points="233.028,361.936 235.816,357.107 238.604,361.936 		"/>
		<polygon fill="#BFE0E8" points="235.816,357.107 238.604,361.936 241.391,357.107 		"/>
		<polygon fill="#FFFFFF" points="230.242,366.764 233.028,361.936 235.816,366.764 		"/>
		<polygon fill="#BFE0E8" points="233.028,361.936 235.816,366.764 238.604,361.936 		"/>
		<polygon fill="#87BCC7" points="252.541,366.764 255.329,361.936 258.115,366.764 		"/>
		<polygon fill="#BFE0E8" points="249.753,361.936 252.541,366.764 255.329,361.936 		"/>
		<polygon fill="#87BCC7" points="255.329,361.936 258.115,357.107 260.902,361.936 		"/>
		<polygon fill="#BFE0E8" points="252.541,357.107 255.329,361.936 258.115,357.107 		"/>
		<polygon fill="#FFFFFF" points="258.115,366.764 260.902,361.936 263.69,366.764 		"/>
		<polygon fill="#BFE0E8" points="255.329,361.936 258.115,366.764 260.902,361.936 		"/>
	</g>
</g>
</svg>
