<?xml version="1.0" encoding="utf-8"?>
<!-- Generator: Adobe Illustrator 15.0.0, SVG Export Plug-In . SVG Version: 6.00 Build 0)  -->
<!DOCTYPE svg PUBLIC "-//W3C//DTD SVG 1.1//EN" "http://www.w3.org/Graphics/SVG/1.1/DTD/svg11.dtd">
<svg version="1.1" id="圖層_1" xmlns="http://www.w3.org/2000/svg" xmlns:xlink="http://www.w3.org/1999/xlink" x="0px" y="0px"
	 width="425.2px" height="425.2px" viewBox="0 0 425.2 425.2" enable-background="new 0 0 425.2 425.2" xml:space="preserve">
<g>
	<g>
		<polygon fill="#00FFE6" points="206.944,180.133 218.576,159.982 230.211,180.133 		"/>
		<polygon fill="#012332" points="206.944,220.436 218.576,200.286 230.211,220.436 		"/>
		<polygon fill="#87BCC7" points="195.309,200.286 206.944,180.133 218.576,200.286 		"/>
		<polygon fill="#A0CFD8" points="218.576,200.286 230.211,180.133 241.848,200.286 		"/>
		<polygon fill="#00FFE6" points="183.675,220.436 195.309,200.286 206.944,220.436 		"/>
		<polygon fill="#00FFE6" points="230.211,220.436 241.848,200.286 253.48,220.436 		"/>
		<polygon fill="#BFE0E8" points="206.944,180.133 218.576,200.286 230.211,180.133 		"/>
		<polygon fill="#BFE0E8" points="195.309,200.286 206.944,220.436 218.576,200.286 		"/>
		<polygon fill="#BFE0E8" points="218.576,200.286 230.211,220.436 241.848,200.286 		"/>
		<polygon fill="#012332" points="206.944,260.738 218.576,240.588 230.211,260.738 		"/>
		<polygon fill="#87BCC7" points="195.309,240.588 206.944,220.436 218.576,240.588 		"/>
		<polygon fill="#A0CFD8" points="218.576,240.588 230.211,220.436 241.848,240.588 		"/>
		<polygon fill="#A0CFD8" points="183.675,260.738 195.309,240.588 206.944,260.738 		"/>
		<polygon fill="#A0CFD8" points="230.211,260.738 241.848,240.588 253.48,260.738 		"/>
		<polygon fill="#BFE0E8" points="206.944,220.436 218.576,240.588 230.211,220.436 		"/>
		<polygon fill="#BFE0E8" points="195.309,240.588 206.944,260.738 218.576,240.588 		"/>
		<polygon fill="#BFE0E8" points="218.576,240.588 230.211,260.738 241.848,240.588 		"/>
		<polygon fill="#87BCC7" points="195.309,280.891 206.944,260.738 218.576,280.891 		"/>
		<polygon fill="#A0CFD8" points="218.576,280.891 230.211,260.738 241.848,280.891 		"/>
		<polygon fill="#BFE0E8" points="206.944,260.738 218.576,280.891 230.211,260.738 		"/>
		<polygon fill="#FFFFFF" points="172.041,280.891 183.675,260.738 195.309,280.891 		"/>
		<polygon fill="#BFE0E8" points="183.675,260.738 195.309,280.891 206.944,260.738 		"/>
		<polygon fill="#FFFFFF" points="241.848,280.891 253.48,260.738 265.115,280.891 		"/>
		<polygon fill="#BFE0E8" points="230.211,260.738 241.848,280.891 253.48,260.738 		"/>
		<polygon fill="#012332" points="206.944,301.041 218.576,280.89 230.211,301.041 		"/>
		<polygon fill="#A0CFD8" points="183.675,301.041 195.309,280.89 206.944,301.041 		"/>
		<polygon fill="#A0CFD8" points="230.211,301.041 241.848,280.89 253.48,301.041 		"/>
		<polygon fill="#BFE0E8" points="195.309,280.89 206.944,301.041 218.576,280.89 		"/>
		<polygon fill="#BFE0E8" points="218.576,280.89 230.211,301.041 241.848,280.89 		"/>
		<polygon fill="#87BCC7" points="195.309,321.192 206.944,301.041 218.576,321.192 		"/>
		<polygon fill="#87BCC7" points="218.576,321.192 230.211,301.041 241.848,321.192 		"/>
		<polygon fill="#BFE0E8" points="206.944,301.041 218.576,321.192 230.211,301.041 		"/>
		<polygon fill="#87BCC7" points="172.041,321.192 183.675,301.041 195.309,321.192 		"/>
		<polygon fill="#BFE0E8" points="183.675,301.041 195.309,321.192 206.944,301.041 		"/>
		<polygon fill="#87BCC7" points="241.848,321.192 253.48,301.041 265.115,321.192 		"/>
		<polygon fill="#BFE0E8" points="230.211,301.041 241.848,321.192 253.48,301.041 		"/>
		<polygon fill="#87BCC7" points="206.944,341.344 218.576,321.192 230.211,341.344 		"/>
		<polygon fill="#A0CFD8" points="206.944,381.646 218.576,361.495 230.211,381.646 		"/>
		<polygon fill="#87BCC7" points="183.675,341.344 195.309,321.192 206.944,341.344 		"/>
		<polygon fill="#87BCC7" points="230.211,341.344 241.848,321.192 253.48,341.344 		"/>
		<polygon fill="#BFE0E8" points="195.309,321.192 206.944,341.344 218.576,321.192 		"/>
		<polygon fill="#BFE0E8" points="218.576,321.192 230.211,341.344 241.848,321.192 		"/>
		<polygon fill="#87BCC7" points="195.309,361.495 206.944,341.344 218.576,361.495 		"/>
		<polygon fill="#87BCC7" points="218.576,361.495 230.211,341.344 241.848,361.495 		"/>
		<polygon fill="#BFE0E8" points="206.944,341.344 218.576,361.495 230.211,341.344 		"/>
		<polygon fill="#87BCC7" points="172.041,361.495 183.675,341.344 195.309,361.495 		"/>
		<polygon fill="#BFE0E8" points="183.675,341.344 195.309,361.495 206.944,341.344 		"/>
		<polygon fill="#87BCC7" points="160.407,341.344 172.041,321.192 183.675,341.344 		"/>
		<polygon fill="#BFE0E8" points="172.041,321.192 183.675,341.344 195.309,321.192 		"/>
		<polygon fill="#FFFFFF" points="148.772,361.495 160.407,341.344 172.041,361.495 		"/>
		<polygon fill="#BFE0E8" points="160.407,341.344 172.041,361.495 183.675,341.344 		"/>
		<polygon fill="#87BCC7" points="241.848,361.495 253.48,341.344 265.115,361.495 		"/>
		<polygon fill="#BFE0E8" points="230.211,341.344 241.848,361.495 253.48,341.344 		"/>
		<polygon fill="#87BCC7" points="253.48,341.344 265.115,321.192 276.748,341.344 		"/>
		<polygon fill="#BFE0E8" points="241.848,321.192 253.48,341.344 265.115,321.192 		"/>
		<polygon fill="#FFFFFF" points="265.115,361.495 276.748,341.344 288.383,361.495 		"/>
		<polygon fill="#BFE0E8" points="253.48,341.344 265.115,361.495 276.748,341.344 		"/>
	</g>
	<g>
		<polygon fill="#00FFE6" points="108.212,216.949 117.72,200.479 127.229,216.949 		"/>
		<polygon fill="#012332" points="108.212,249.889 117.72,233.42 127.229,249.889 		"/>
		<polygon fill="#87BCC7" points="98.704,233.42 108.212,216.949 117.72,233.42 		"/>
		<polygon fill="#A0CFD8" points="117.72,233.42 127.229,216.949 136.739,233.42 		"/>
		<polygon fill="#00FFE6" points="89.195,249.889 98.704,233.42 108.212,249.889 		"/>
		<polygon fill="#00FFE6" points="127.229,249.889 136.739,233.42 146.248,249.889 		"/>
		<polygon fill="#BFE0E8" points="108.212,216.949 117.72,233.42 127.229,216.949 		"/>
		<polygon fill="#BFE0E8" points="98.704,233.42 108.212,249.889 117.72,233.42 		"/>
		<polygon fill="#BFE0E8" points="117.72,233.42 127.229,249.889 136.739,233.42 		"/>
		<polygon fill="#012332" points="108.212,282.828 117.72,266.359 127.229,282.828 		"/>
		<polygon fill="#87BCC7" points="98.704,266.359 108.212,249.889 117.72,266.359 		"/>
		<polygon fill="#A0CFD8" points="117.72,266.359 127.229,249.889 136.739,266.359 		"/>
		<polygon fill="#A0CFD8" points="89.195,282.828 98.704,266.359 108.212,282.828 		"/>
		<polygon fill="#A0CFD8" points="127.229,282.828 136.739,266.359 146.248,282.828 		"/>
		<polygon fill="#BFE0E8" points="108.212,249.889 117.72,266.359 127.229,249.889 		"/>
		<polygon fill="#BFE0E8" points="98.704,266.359 108.212,282.828 117.72,266.359 		"/>
		<polygon fill="#BFE0E8" points="117.72,266.359 127.229,282.828 136.739,266.359 		"/>
		<polygon fill="#87BCC7" points="98.704,299.299 108.212,282.828 117.72,299.299 		"/>
		<polygon fill="#A0CFD8" points="117.72,299.299 127.229,282.828 136.739,299.299 		"/>
		<polygon fill="#BFE0E8" points="108.212,282.828 117.72,299.299 127.229,282.828 		"/>
		<polygon fill="#FFFFFF" points="79.686,299.299 89.195,282.828 98.704,299.299 		"/>
		<polygon fill="#BFE0E8" points="89.195,282.828 98.704,299.299 108.212,282.828 		"/>
		<polygon fill="#FFFFFF" points="136.739,299.299 146.248,282.828 155.755,299.299 		"/>
		<polygon fill="#BFE0E8" points="127.229,282.828 136.739,299.299 146.248,282.828 		"/>
		<polygon fill="#012332" points="108.212,315.768 117.72,299.298 127.229,315.768 		"/>
		<polygon fill="#A0CFD8" points="89.195,315.768 98.704,299.298 108.212,315.768 		"/>
		<polygon fill="#A0CFD8" points="127.229,315.768 136.739,299.298 146.248,315.768 		"/>
		<polygon fill="#BFE0E8" points="98.704,299.298 108.212,315.768 117.72,299.298 		"/>
		<polygon fill="#BFE0E8" points="117.72,299.298 127.229,315.768 136.739,299.298 		"/>
		<polygon fill="#87BCC7" points="98.704,332.237 108.212,315.768 117.72,332.237 		"/>
		<polygon fill="#87BCC7" points="117.72,332.237 127.229,315.768 136.739,332.237 		"/>
		<polygon fill="#BFE0E8" points="108.212,315.768 117.72,332.237 127.229,315.768 		"/>
		<polygon fill="#87BCC7" points="79.686,332.237 89.195,315.768 98.704,332.237 		"/>
		<polygon fill="#BFE0E8" points="89.195,315.768 98.704,332.237 108.212,315.768 		"/>
		<polygon fill="#87BCC7" points="136.739,332.237 146.248,315.768 155.755,332.237 		"/>
		<polygon fill="#BFE0E8" points="127.229,315.768 136.739,332.237 146.248,315.768 		"/>
		<polygon fill="#87BCC7" points="108.212,348.707 117.72,332.237 127.229,348.707 		"/>
		<polygon fill="#A0CFD8" points="108.212,381.646 117.72,365.177 127.229,381.646 		"/>
		<polygon fill="#87BCC7" points="89.195,348.707 98.704,332.237 108.212,348.707 		"/>
		<polygon fill="#87BCC7" points="127.229,348.707 136.739,332.237 146.248,348.707 		"/>
		<polygon fill="#BFE0E8" points="98.704,332.237 108.212,348.707 117.72,332.237 		"/>
		<polygon fill="#BFE0E8" points="117.72,332.237 127.229,348.707 136.739,332.237 		"/>
		<polygon fill="#87BCC7" points="98.704,365.177 108.212,348.707 117.72,365.177 		"/>
		<polygon fill="#87BCC7" points="117.72,365.177 127.229,348.707 136.739,365.177 		"/>
		<polygon fill="#BFE0E8" points="108.212,348.707 117.72,365.177 127.229,348.707 		"/>
		<polygon fill="#87BCC7" points="79.686,365.177 89.195,348.707 98.704,365.177 		"/>
		<polygon fill="#BFE0E8" points="89.195,348.707 98.704,365.177 108.212,348.707 		"/>
		<polygon fill="#87BCC7" points="70.177,348.707 79.686,332.237 89.195,348.707 		"/>
		<polygon fill="#BFE0E8" points="79.686,332.237 89.195,348.707 98.704,332.237 		"/>
		<polygon fill="#FFFFFF" points="60.668,365.177 70.177,348.707 79.686,365.177 		"/>
		<polygon fill="#BFE0E8" points="70.177,348.707 79.686,365.177 89.195,348.707 		"/>
		<polygon fill="#87BCC7" points="136.739,365.177 146.248,348.707 155.755,365.177 		"/>
		<polygon fill="#BFE0E8" points="127.229,348.707 136.739,365.177 146.248,348.707 		"/>
		<polygon fill="#87BCC7" points="146.248,348.707 155.755,332.237 165.263,348.707 		"/>
		<polygon fill="#BFE0E8" points="136.739,332.237 146.248,348.707 155.755,332.237 		"/>
		<polygon fill="#FFFFFF" points="155.755,365.177 165.263,348.707 174.773,365.177 		"/>
		<polygon fill="#BFE0E8" points="146.248,348.707 155.755,365.177 165.263,348.707 		"/>
	</g>
	<g>
		<polygon fill="#00FFE6" points="298.074,267.468 304.666,256.05 311.258,267.468 		"/>
		<polygon fill="#012332" points="298.074,290.304 304.666,278.887 311.258,290.304 		"/>
		<polygon fill="#87BCC7" points="291.482,278.887 298.074,267.468 304.666,278.887 		"/>
		<polygon fill="#A0CFD8" points="304.666,278.887 311.258,267.468 317.852,278.887 		"/>
		<polygon fill="#00FFE6" points="284.891,290.304 291.482,278.887 298.074,290.304 		"/>
		<polygon fill="#00FFE6" points="311.258,290.304 317.852,278.887 324.443,290.304 		"/>
		<polygon fill="#BFE0E8" points="298.074,267.468 304.666,278.887 311.258,267.468 		"/>
		<polygon fill="#BFE0E8" points="291.482,278.887 298.074,290.304 304.666,278.887 		"/>
		<polygon fill="#BFE0E8" points="304.666,278.887 311.258,290.304 317.852,278.887 		"/>
		<polygon fill="#012332" points="298.074,313.14 304.666,301.722 311.258,313.14 		"/>
		<polygon fill="#87BCC7" points="291.482,301.722 298.074,290.304 304.666,301.722 		"/>
		<polygon fill="#A0CFD8" points="304.666,301.722 311.258,290.304 317.852,301.722 		"/>
		<polygon fill="#A0CFD8" points="284.891,313.14 291.482,301.722 298.074,313.14 		"/>
		<polygon fill="#A0CFD8" points="311.258,313.14 317.852,301.722 324.443,313.14 		"/>
		<polygon fill="#BFE0E8" points="298.074,290.304 304.666,301.722 311.258,290.304 		"/>
		<polygon fill="#BFE0E8" points="291.482,301.722 298.074,313.14 304.666,301.722 		"/>
		<polygon fill="#BFE0E8" points="304.666,301.722 311.258,313.14 317.852,301.722 		"/>
		<polygon fill="#87BCC7" points="291.482,324.558 298.074,313.14 304.666,324.558 		"/>
		<polygon fill="#A0CFD8" points="304.666,324.558 311.258,313.14 317.852,324.558 		"/>
		<polygon fill="#BFE0E8" points="298.074,313.14 304.666,324.558 311.258,313.14 		"/>
		<polygon fill="#FFFFFF" points="278.299,324.558 284.891,313.14 291.482,324.558 		"/>
		<polygon fill="#BFE0E8" points="284.891,313.14 291.482,324.558 298.074,313.14 		"/>
		<polygon fill="#FFFFFF" points="317.852,324.558 324.443,313.14 331.033,324.558 		"/>
		<polygon fill="#BFE0E8" points="311.258,313.14 317.852,324.558 324.443,313.14 		"/>
		<polygon fill="#012332" points="298.074,335.976 304.666,324.557 311.258,335.976 		"/>
		<polygon fill="#A0CFD8" points="284.891,335.976 291.482,324.557 298.074,335.976 		"/>
		<polygon fill="#A0CFD8" points="311.258,335.976 317.852,324.557 324.443,335.976 		"/>
		<polygon fill="#BFE0E8" points="291.482,324.557 298.074,335.976 304.666,324.557 		"/>
		<polygon fill="#BFE0E8" points="304.666,324.557 311.258,335.976 317.852,324.557 		"/>
		<polygon fill="#87BCC7" points="291.482,347.393 298.074,335.976 304.666,347.393 		"/>
		<polygon fill="#87BCC7" points="304.666,347.393 311.258,335.976 317.852,347.393 		"/>
		<polygon fill="#BFE0E8" points="298.074,335.976 304.666,347.393 311.258,335.976 		"/>
		<polygon fill="#87BCC7" points="278.299,347.393 284.891,335.976 291.482,347.393 		"/>
		<polygon fill="#BFE0E8" points="284.891,335.976 291.482,347.393 298.074,335.976 		"/>
		<polygon fill="#87BCC7" points="317.852,347.393 324.443,335.976 331.033,347.393 		"/>
		<polygon fill="#BFE0E8" points="311.258,335.976 317.852,347.393 324.443,335.976 		"/>
		<polygon fill="#87BCC7" points="298.074,358.811 304.666,347.393 311.258,358.811 		"/>
		<polygon fill="#A0CFD8" points="298.074,381.646 304.666,370.229 311.258,381.646 		"/>
		<polygon fill="#87BCC7" points="284.891,358.811 291.482,347.393 298.074,358.811 		"/>
		<polygon fill="#87BCC7" points="311.258,358.811 317.852,347.393 324.443,358.811 		"/>
		<polygon fill="#BFE0E8" points="291.482,347.393 298.074,358.811 304.666,347.393 		"/>
		<polygon fill="#BFE0E8" points="304.666,347.393 311.258,358.811 317.852,347.393 		"/>
		<polygon fill="#87BCC7" points="291.482,370.229 298.074,358.811 304.666,370.229 		"/>
		<polygon fill="#87BCC7" points="304.666,370.229 311.258,358.811 317.852,370.229 		"/>
		<polygon fill="#BFE0E8" points="298.074,358.811 304.666,370.229 311.258,358.811 		"/>
		<polygon fill="#87BCC7" points="278.299,370.229 284.891,358.811 291.482,370.229 		"/>
		<polygon fill="#BFE0E8" points="284.891,358.811 291.482,370.229 298.074,358.811 		"/>
		<polygon fill="#87BCC7" points="271.705,358.811 278.299,347.393 284.891,358.811 		"/>
		<polygon fill="#BFE0E8" points="278.299,347.393 284.891,358.811 291.482,347.393 		"/>
		<polygon fill="#FFFFFF" points="265.113,370.229 271.705,358.811 278.299,370.229 		"/>
		<polygon fill="#BFE0E8" points="271.705,358.811 278.299,370.229 284.891,358.811 		"/>
		<polygon fill="#87BCC7" points="317.852,370.229 324.443,358.811 331.033,370.229 		"/>
		<polygon fill="#BFE0E8" points="311.258,358.811 317.852,370.229 324.443,358.811 		"/>
		<polygon fill="#87BCC7" points="324.443,358.811 331.033,347.393 337.625,358.811 		"/>
		<polygon fill="#BFE0E8" points="317.852,347.393 324.443,358.811 331.033,347.393 		"/>
		<polygon fill="#FFFFFF" points="331.033,370.229 337.625,358.811 344.219,370.229 		"/>
		<polygon fill="#BFE0E8" points="324.443,358.811 331.033,370.229 337.625,358.811 		"/>
	</g>
</g>
</svg>
